<?xml version="1.0" encoding="UTF-8"?>
<svg viewBox="0 0 226.51767 270.66068" xmlns="http://www.w3.org/2000/svg">
 <g transform="translate(-235.31 -202.75)">
  <path d="m257.4 270.51c2.1119-3.594-4.1622-36.255 8.7208-43.28 13.791-7.5199 18.306-5.138 21.321-8.6195 2.4983-2.8855 1.3552-6.5006 8.5026-8.7401 8.0155-2.5114 31.224-6.2269 57.596-5.5359 26.244 0.68761 30.045 3.5179 42.234 7.9157 6.5679 2.3697 16.354 5.7423 17.691 8.9111 2.7698 6.5683 7.4042 2.0391 9.3602 6.492 1.9034 4.333 7.3605 16.263 8.3057 28.504 5.5285 0.01107 10.528 0.21903 14.36 4.0507s7.614 9.2922 8.6232 21.195c0.6998 8.2532 2.301 28.469 2.664 41.185 0.236 8.2698 1.0545 23.848-0.854 27.778-1.1501 2.3686-10.794 11.172-11.703 12.962-0.27379 1.79 4.8649-0.78792 10.29 3.0873 4.9047 3.5032 5.2008 9.8264 5.4597 13.97 0.3931 6.2914 0.8636 32.79-0.9561 36.923-2.664 6.0503-11.988 11.432-17.31 13.425 0.7103 10.458-3.4472 12.112-3.4472 12.112s-0.76556 10.617-3.2989 14.072c-2.8793 3.9265-9.5199 7.507-20.326 10.418-23.606 6.3599-65.466 4.1953-71.85 4.0508-9.3492-0.21163-29.607-1.0767-38.521-3.4084-4.3688-1.1427-15.765-7.656-15.765-7.656s-7.437-5.109-10.63-7.0248-7.2631-3.5268-9.0385-5.4714c-3.7583-4.1162-5.0185-7.847-5.0185-7.847s-9.2515 1.0503-14.013-7.864c-2.1696-4.062-9.1243-30.704-9.957-37.745-0.45616-3.8577-1.2536-34.084 0.02359-37.916s11.921-15.03 10.535-16.855c-1.9559-2.5751-12.922-15.4-13.528-28.354-0.45824-9.7564 2.0579-21.009 3.4594-24.797 0.67534-1.8254 3.1763-7.5559 8.2479-12.675s5.1575-2.0313 8.8226-3.2626z" fill="#3771c8" fill-rule="evenodd" stroke="#000" stroke-width="3"/>
  <path d="m403.31 256c13.89 1.8181 32.884-1.3815 39.976 3.9863 4.0616 3.0743 9.1335 9.5093 10.143 21.412 0.69973 8.2532 2.301 28.469 2.6639 41.185 0.2361 8.2698 1.0546 23.848-0.8539 27.778-0.7017 1.445-6.6092 8.0446-12.478 13.273-4.0159 0.21766-10.347-0.30874-40.15-3.3465 3.799-25.558 0.94893-90.903 0.69899-104.29z" fill="#986601" fill-rule="evenodd"/>
  <path d="m420.4 361.46c11.059 0.97322 16.198 1.2998 22.788 1.9661 1.6729 0.16912 7.9671 0.9497 10.349 2.8932 5.3956 4.4034 5.2008 9.8264 5.4596 13.97 0.3931 6.2914 0.7102 32.483-1.1095 36.616-1.3567 3.0812-6.3372 7.1294-11.287 10.498-2.4175 1.6452-15.238 5.8665-25.411 5.4911-1.8073-10.076-1.4244-68.711-0.78884-71.434z" fill="#986601" fill-rule="evenodd"/>
  <path d="m329.11 469.47c-20.907-0.72369-28.481-3.2375-35.772-7.0374-2.946-1.5355-9.7886-6.1767-15.56-9.6954-2.8443-1.7342-5.9196-3.0925-8.0913-4.8086-2.4779-1.9581-5.4482-5.347-6.5841-8.8452-1.2864-3.9617-8.4242-136.38-6.1953-169.74 0.58065-8.6908 0.03013-13.401 0.15684-19.113 0.28599-12.89 1.8524-16.924 4.2972-21.157 2.1128-3.6584 13.86-8.5349 17.772-7.4651 3.7637 1.0292 10.961 7.7221 13.465 12.334 5.4177 9.9761 7.1254 14.962 10.165 26.001 5.2055 18.903 6.6739 29.604 7.7948 39.888 1.1108 10.192 2.6605 16.414 3.775 19.75s-0.94464 24.765-1.6717 35.713c-0.57956 8.727-2.3745 19.871-2.6446 31.084-0.27646 11.476-0.21306 16.25-0.15118 23.257 0.05289 5.8717-0.52086 10.443 0.17776 18.638 0.62943 7.3835 2.6885 14.685 4.5539 19.733 4.2743 11.567 15.068 22.576 14.511 21.464z" fill="#556b2f" fill-rule="evenodd" stroke="#000" stroke-width="2"/>
  <path d="m249.48 272.45c-8.215 7.0815-13.587 21.096-13.195 35.058 0.43317 15.262 10.851 29.549 16.444 31.723 3.7714 1.4657 41.499 0.33581 41.499 0.33581s4.928-0.9555 7.4524-3.5499 2.9918-2.9686 3.9107-4.9125c1.5322-3.2414 0.90055-11.181 0.90055-12.664s-1.2945-13.936-2.045-19.77c-0.33087-2.572-1.7719-12.666-2.8538-19.796-0.47479-3.1288-2.464-7.8454-6.0703-8.5866s-29.364-0.74125-30.806-0.74125-12.135 0.22976-15.236 2.9029z" fill="#986601" fill-rule="evenodd" stroke="#000" stroke-width="1.0138"/>
  <path d="m251.3 275.04c-8.0722 7.1304-11.621 20.973-10.687 33.934 1.0779 14.954 5.9311 22.97 13.074 27.378 5.152 3.1798 27.426 1.5295 27.426 1.5295s12.77-0.40532 15.904-2.1617c1.8733-1.0497 4.2392-1.7242 6.4909-6.3449 1.5702-3.2222 1.1472-9.0766 1.1472-10.559s-1.2888-10.431-1.8949-17.974c-0.41712-5.1916-2.2614-14.686-3.3041-21.647-0.46883-3.1298-3.311-6.1928-6.9173-6.934s-28.163-0.43276-29.605-0.43276-8.5646 0.50008-11.634 3.2114z" fill="#986601" fill-rule="evenodd" stroke="#000" stroke-width="1.0138"/>
  <path d="m253.26 272.36s27.802-1.7616 31.378-0.79681 6.7451 1.818 8.3096 5.6771 2.3619 13.56 1.8696 21.38c-1.6518-0.11444-1.0494-0.08049-2.605-0.05555-0.17829-5.0413 0.0649-8.5824-0.57071-12.753-0.68026-4.463-0.94051-7.7865-6.081-9.9572s-35.971-0.42976-35.971-0.42976l3.6706-3.0647z" fill="#e3e2db" fill-rule="evenodd" stroke="#000" stroke-width="1.1879"/>
  <path d="m295.41 303.05-3.221 0.11052s-2.6042 5.9777-3.0208 9.5936c-0.42647 3.7014 2.7668 4.0919 4.9519 3.9934 2.4445-0.11029 5.0565-2.2366 4.5822-3.9717-1.1444-4.1862-3.2923-9.7258-3.2923-9.7258zm-2.5618 7.6566c0.37226-0.15134 1.9546-0.22655 2.4286 0.09717 0.53686 0.36659 1.0396 1.4096 0.71841 2.2937s-1.0418 1.3662-2.3244 1.4627-1.8125-0.8121-2.0182-1.693 0.73246-1.9724 1.1955-2.1606z" fill="#e3e2db" fill-rule="evenodd" stroke="#000" stroke-width="1.1879"/>
  <path d="m292.04 298.75s-1.2046 1.0641-1.8467 2.7716-1.4049 3.8962-0.37274 4.4435 2.0787-2.3224 4.0935-2.3224c1.1957 0 2.8344 1.8034 3.8432 1.3303s0.14686-2.4112-0.77039-3.9949-1.9644-2.2126-1.9644-2.2126l-2.9824-0.01545z" fill="#e3e2db" fill-rule="evenodd" stroke="#000" stroke-width="1.1879"/>
  <path d="m250.08 337.73c-1.574 4.6164-10.21 15.739-10.767 19.76-0.8219 5.9377-0.4952 22.42-0.3729 29.961 0.1421 8.7628 7.7373 37.649 9.4954 41.241 1.8516 3.783 3.9415 10.357 14.215 10.574 3.7621 0.08132 9.8884 1.5443 22.644 1.9286 4.103 0.12097 13.986-0.28343 17.922-0.59661 4.6333 0.13617 1.1381-14.138 0.0065-19.49-0.8081-3.822-1.1055-20.301-0.5077-31.2 0.5732-10.449 5.371-30.724 6.1638-38.506 0.3716-3.6486 0.1702-7.9059-1.0966-9.2685-2.1109-2.2707-4.6723-2.0609-7.0632-2.6307s-25.161 0.19285-29.387 0.24481c-3.0033 0.03772-14.255-0.03539-21.253-2.0167z" fill-rule="evenodd" stroke="#000" stroke-width=".97664"/>
  <path d="m251.3 342.82c-2.3603 1.7553-6.3065 6.9993-8.5913 14.272-1.6614 5.2885-0.70567 29.624-0.59409 36.599 0.12969 8.1056 6.299 28.987 7.9032 32.31 1.6897 3.4993 3.5968 9.5803 12.972 9.7811 3.4331 0.07522 9.0235 1.4285 20.663 1.784 3.7441 0.1119 12.763-0.26217 16.354-0.55186 4.228 0.12596 1.0386-13.078 0.00596-18.029-0.73738-3.5354-1.0088-18.779-0.46326-28.86 0.52304-9.6651 4.9012-28.419 5.6246-35.619 0.33912-3.3749 0.15532-7.313-1.0006-8.5734-1.9263-2.1004-4.2636-1.9064-6.4454-2.4334s-22.297-0.38984-26.153-0.34178c-2.7406 0.03489-18.592-1.5899-20.275-0.33791z" fill="#986601" fill-rule="evenodd" stroke="#000" stroke-width=".89729"/>
  <path d="m301.49 343.25c-7.6384 3.6775-9.5745 5.0886-13.637 12.152-2.7289 4.7444-4.9509 17.268-5.3572 21.849-2.6106 29.44 9.5331 47.604 9.0398 55.424-1.6517-0.11443-1.986-0.08049-3.5417-0.05555 0.7974-9.5925-10.197-24.084-8.5627-53.794 0.2322-4.2225 0.0965-16.696 7.6931-28.071 4.0741-6.1003 9.3225-7.5203 9.3225-7.5203l5.0434 0.01566z" fill="#e3e2db" fill-rule="evenodd" stroke="#000" stroke-width="1.1879"/>
  <g transform="translate(-298.58 292.33)" fill="#e3e2db" fill-rule="evenodd" stroke="#000" stroke-width="1.1879">
   <path d="m581.24 99.284-3.221 0.11051s-2.6042 5.9778-3.0208 9.5936c-0.42647 3.7014 2.7668 4.0919 4.9519 3.9934 2.4445-0.11029 5.0565-2.2366 4.5822-3.9717-1.1444-4.1862-3.2923-9.7258-3.2923-9.7258zm-2.5618 7.6566c0.37226-0.15133 1.9546-0.22655 2.4286 0.09717 0.53686 0.3666 1.0396 1.4096 0.71841 2.2937s-1.0418 1.3662-2.3244 1.4627-1.8125-0.81209-2.0182-1.6929 0.73246-1.9724 1.1955-2.1606z"/>
   <path d="m577.87 94.979s-1.2046 1.0641-1.8467 2.7716-1.4049 3.8962-0.37274 4.4435 2.0787-2.3224 4.0935-2.3224c1.1957 0 2.8344 1.8033 3.8432 1.3303s0.14686-2.4112-0.77039-3.9949-1.9644-2.2126-1.9644-2.2126l-2.9824-0.01545z"/>
  </g>
  <g transform="translate(-637.9 293.43)" fill="#556b2f" fill-rule="evenodd" stroke="#000">
   <path d="m967.26 177.02c7.3358 1.9299 23.894 1.653 31.543 1.4429 5.2234-0.14345 40.259 1.6915 59.435-5.734 8.7785-3.3993 13.959-7.2997 16.236-11.357 2.0029-3.5694 1.827-15.751 1.8271-15.751s2.3799-63.366 1.0086-79.047c-1.4107-16.131-1.4698-46.976-3.5578-58.313-62.09-1.3826-86.855 2.6784-122.89-0.24218 1.1107 10.143 1.9295 17.065 2.907 20.351s-0.87059 24.625-1.2478 35.607c-0.30071 8.7543-3.4541 18.452-3.4524 29.678 0.00168 11.49-0.43297 15.1-0.24327 22.106 0.15988 5.8701-0.98017 12.762-0.24625 20.927 0.66128 7.3561 1.8675 13.304 5.6687 23.164 4.3058 11.169 13.491 18.254 13.013 17.167z" stroke-width="2.7145"/>
   <path d="m973.76 176.28c6.611 1.7392 20.726 0.68328 27.619 0.49397 4.7075-0.12927 36.282 1.5244 53.563-5.1674 4.5939-1.7789 10.624-7.355 13.804-12.619 2.2956-3.8007 2.501-12.182 2.474-15.242-0.1666-18.913 2.1447-53.673 0.9088-67.804-1.2713-14.537-2.5341-58.058-4.4157-68.275-55.954-1.246-75.048 1.6074-107.93 0.5881 2.6136 9.9476 2.6549 47.526 1.6093 57.822-1.5759 15.518-4.4218 44.653-4.2509 50.966 0.144 5.2901-0.8834 16.339-0.2219 23.697 0.5959 6.6292 0.8765 10.376 4.3021 19.262 3.8804 10.065 12.964 17.257 12.534 16.277z" stroke-width="2.4462"/>
  </g>
  <path d="m310.53 372.35 14.07 0.75292s0.9622 8.66-1.5157 10.194c-1.7778 1.1006-3.8222 0.99875-3.8222 0.99875l-0.4719 5.682 3.7589-0.06322-0.5351 5.3533-13.325-0.76135 0.236-4.6018 4.113-0.09973 0.427-5.6272s-2.8881-0.17278-3.832-2.8867 1.0156-8.823 0.8976-8.9409z" fill="#e6e6e6" fill-rule="evenodd" stroke="#000" stroke-width="2.1241"/>
  <path d="m430.79 362.49 11.307-0.77018s0.4119 5.8015 0.4209 11.891-0.5741 11.519-0.5741 11.519l-11.488 0.36173 0.3183-4.9496 3.3214-0.08674-0.2521-5.2644s-2.2029-0.74873-3.3788-3.3705 0.4531-9.2224 0.3253-9.3298z" fill="#e6e6e6" fill-rule="evenodd" stroke="#000" stroke-width="2.1241"/>
  <path d="m327.53 306.17s1.2746 29.349 1.3637 33.749c0.14629 7.0822 0.66906 19.242 4.179 21.162 3.9815 2.1775 9.6247 2.2692 15.6 2.241 7.8814-0.03712 17.107-0.17857 29.683-1.0501 21.029-1.4574 37.903 1.1171 46.005-3.5831 3.3251-1.9289 3.3582-5.3942 3.4029-10.294 0.12316-13.324-3.4022-46.369-3.5442-48.279-2.2526 0.48782-26.551-3.6138-52.137-2.2092-23.004 1.2629-44.694 8.4203-44.552 8.2634z" fill="#986601" fill-rule="evenodd" stroke="#000" stroke-width="1.0097"/>
  <path d="m327.9 306.08s0.631 29.717 0.72013 34.117c0.14628 7.0822 1.7051 17.006 3.3778 19.745s5.1273 3.9844 9.4526 2.7982 9.0589-3.3975 10.09-8.8052-1.0013-20.259-1.4551-24.363c-0.54287-4.9086-2.6748-20.725-3.2202-28.061-4.278 0.92641-19.264 4.9003-18.965 4.5689z" fill="#986601" fill-rule="evenodd" stroke="#000" stroke-width="1.0097"/>
  <path d="m335.54 304.01 2.484-0.55667 2.5743 57.42-2.7855 0.32173-2.2727-57.185z" fill="#e3e2db" fill-rule="evenodd" stroke="#000" stroke-width="1.0097"/>
  <path d="m339.82 339.42-3.2228-0.0086s-2.8233 5.8774-3.3733 9.4754c-0.56297 3.6831 2.6137 4.1914 4.801 4.1736 2.4469-0.01987 5.1357-2.0482 4.7258-3.7996-0.98889-4.2257-2.9306-9.8408-2.9306-9.8408zm-2.843 7.5566c0.3776-0.13747 1.9616-0.15416 2.4234 0.18686 0.52295 0.38619 0.98679 1.4471 0.63315 2.3187s-1.0916 1.3268-2.3769 1.3758-1.7812-0.87852-1.9542-1.7664 0.80485-1.9439 1.2746-2.115z" fill="#e3e2db" fill-rule="evenodd" stroke="#000" stroke-width="1.1879"/>
  <path d="m336.6 334.99s-1.2431 1.0188-1.9479 2.7015-1.5479 3.8416-0.5367 4.4267 2.1632-2.244 4.1765-2.1696c1.1948 0.04419 2.7658 1.9069 3.7914 1.4714s0.23587-2.4041-0.62222-4.0207-1.8813-2.2837-1.8813-2.2837l-2.9798-0.12566z" fill="#e3e2db" fill-rule="evenodd" stroke="#000" stroke-width="1.1879"/>
  <g transform="translate(-556.09 348.9)" fill="#556b2f" fill-rule="evenodd" stroke="#000" stroke-width="2">
   <path d="m843.34-129.41c-1.6176 2.047-6.5388 2.0645-5.5623 2.3086 0.47577 0.11895 3.2574 2.443 6.5035 5.5195 3.4165 3.2379 6.3905 8.4924 8.1279 11.534 2.5606 4.4834 7.462 18.543 10.89 33.634 1.2345 5.4354 2.3669 14.327 3.4528 20.601 2.0196 11.668 3.6313 22.081 4.0502 23.643 0.99301 3.7032 4.123 3.5533 7.9169 2.3702 4.8862-1.5238 25.766-5.5422 32.475-5.6609 6.6866-0.11668 25.372-1.3022 34.652-0.73903 14.62 0.8929 32.654 4.3349 35.339 4.579s11.973 1.9044 11.554-5.9986c-0.30731-5.7922-1.2463-15.017-1.9335-19.452-0.82805-5.3443-3.3236-30.654-4.3533-35.903-1.2867-6.5595-2.5426-10.439-4.0279-15.225-1.523-4.9077-3.2252-10.878-5.7778-14.738-8.6901-1.2432-5.08-2.7854-9.6794-6.7474-1.7246-1.5223-13.788-6.111-24.692-9.8916-6.48-2.2468-12.486-3.2752-19.606-3.894-20.047-1.7425-40.991 0.11674-46.39 0.48539-5.1666 0.35276-25.759 3.8741-28.202 6.0696-2.4127 2.1686-3.6813 6.1695-4.737 7.5055z"/>
   <path d="m846.93-127c20.894 18.762 22.58 53.248 24.592 69.408 0.82612 6.6339 3.5492 28.229 7.343 27.046 4.8862-1.5238 25.766-5.5422 32.475-5.6609 6.6866-0.11668 25.372-1.3022 34.652-0.73903 14.62 0.89289 33.348 3.9248 35.946 4.6452 7.8059 2.1643 3.5185-12.081 2.7664-22.665-0.81211-11.429-3.7678-29.169-5.4739-36.704-1.6068-7.0966-7.518-30.783-12.117-38.762-1.7246-1.5223-13.788-6.111-24.692-9.8916-6.48-2.2468-12.486-3.2752-19.606-3.894-20.047-1.7425-40.991 0.11674-46.39 0.48539-5.1666 0.35276-25.74 3.8954-28.202 6.0696-7.0035 6.1856-5.9554 6.476-1.2939 10.662z"/>
  </g>
  <path d="m361.79 469.65c-8.7041 0.01953-18.606 1.6553-26.027-4.0124-6.8628-4.9647-11.348-13.221-10.829-21.788-0.0544-9.408 0.1563-19.124 3.3909-28.06 3.2068-8.5767 10.077-15.799 18.888-18.616 14.216-5.6658 29.844-6.1315 44.941-5.5967 10.55 0.9198 21.621 3.0489 30.208 9.6135 5.624 6.0353 5.7715 14.816 7.0246 22.513 1.1164 10.643 1.6889 22.727-5.1554 31.702-6.1493 7.9495-16.263 11.812-26.106 11.989-12.072 1.2768-24.197 2.0805-36.336 2.2553z" fill="#986601" fill-rule="evenodd" stroke="#000"/>
  <path d="m364.36 469.75c-7.8691 0.05524-16.955 1.4983-23.407-4.1363-5.7413-4.5146-9.144-11.773-8.5315-19.098-0.0166-10.979 0.3975-23.185 7.9656-31.926 5.6062-6.8052 14.586-9.1162 22.823-10.961 10.466-1.837 21.241-2.2247 31.8-1.0607 7.9007 1.0829 16.21 3.0885 22.358 8.4292 4.7449 5.9764 4.7477 14.021 5.7762 21.233 0.9637 9.5236 0.6363 20.619-6.8718 27.623-5.6419 5.6284-13.714 7.8648-21.496 8.0577-10.108 1.029-20.257 1.6958-30.417 1.8397z" fill="#795100" fill-rule="evenodd" stroke="#000" stroke-width=".86651"/>
  <path d="m367.71 469.8c-7.4849 0.10306-16.214 1.3697-22.143-4.3324-4.9738-4.1844-7.8073-10.72-7.1758-17.222-0.1624-10.693 0.6006-22.939 8.8399-30.787 6.564-6.072 15.763-7.8509 24.311-9.1919 12.594-1.2972 25.833-1.581 37.784 3.1955 4.151 1.6792 8.3009 4.2878 9.652 8.8249 2.3085 6.7796 2.7299 14.066 3.0895 21.169 0.2773 7.772-2.0062 16.233-8.607 20.974-6.3807 5.239-14.922 5.5674-22.762 6.15-7.6453 0.67224-15.313 1.114-22.988 1.2196z" fill="#986601" fill-rule="evenodd" stroke="#000" stroke-width=".79625"/>
  <g fill="#8f6000" fill-rule="evenodd">
   <path d="m451.33 309.81c0.2409-11.29 0.94124-22.46-0.75368-31.295s-7.6214-15.455-10.671-15.576-3.9166 11.809-0.81611 23.794 3.0524 21.32 2.7099 29.254c-0.20577 4.6621 0.22393 24.058 4.6885 13.92s4.7331-14.881 4.8427-20.097z"/>
   <path d="m446.4 384.33c-0.3568 6.5057 0.12118 6.6504 3.4377 2.7454 3.0582-3.6008-0.25443 10.962 3.4214 23.403 4.388 14.851 3.3649-26.002 3.1167-31.331-0.3958-8.4455-10.495-18.008-9.8081-6.4053 0.18792 3.175 0.18006 5.2468-0.16769 11.588z"/>
   <path d="m252 281.25c-4.6512 2.7998-8.0209 20.883-6.7616 28.039 0.71159 4.044 0.66532 6.9023 2.118 10.118 2.2068 4.8854 5.1426 11.121 7.9162 12.342 4.5993 2.0258 11.508 2.5111 20.049 1.8358s20.617 0.25078 23.985-3.7172-18.87-2.3482-15.82-12.325c3.1211-10.209-13.863 0.13429-16.363-3.3438-2.1813-3.0354 3.339-18.664-4.9816-13.538-10.863 6.6927-6.1077-5.2447-6.8705-9.2766-0.6697-3.5402 1.2557-12.861-3.2726-10.135z"/>
   <path d="m292.19 390.43c1.5416 2.6696 1.584 5.3666 2.2503 9.2622 0.99999 5.8466 0.29923 7.3894 1.3447 13.019 1.2256 6.5988-0.07479 16.216-1.7806 7.2721-1.5856-8.3335-5.8803-10.714-6.0626-12.81-0.24645-2.8339 3.7165-2.889 2.5393-6.8542-1.1427-3.8488 0.74276-11.562 1.7089-9.8894z"/>
   <path d="m253.2 347.28c-4.6512 2.7998-6.0669 7.8498-6.7968 16.05-0.66931 7.5199 0.50375 22.584 0.7432 32.584 0.1511 6.3099 2.526 15.38 6.0117 24.121 2.4745 6.2051 6.0651 9.2088 18.727 11.726 27.974 5.5608-7.0504-5.8853-11.321-15.404-6.2178-13.858-6.7748-40.164-2.0618-57.209 3.4005-12.298 21.4-6.8006 20.637-10.832-0.6697-3.5402-21.411-3.7608-25.939-1.035z"/>
   <path d="m372.85 339.5c1.0526-10.638 8.8601 4.163 11.975 7.4627 4.0564 4.2969 30.279 4.4241 31.401 5.9828 3.0696 4.2648-13.622 4.5017-19.087 4.9179-13.332 1.0154-37.05 0.37912-41.857 0.37719-1.1391-4.6e-4 -1.9076-1.1498-1.4974-2.5308 1.4762-4.9699 1.311-12.77 0.3812-18.571-0.8388-5.2351-2.5187-11.606-2.5867-15.116-0.0652-3.3712 2.032-3.5936 3.7373-1.3389 3.0897 4.0851 16.48 29.46 17.533 18.816z"/>
   <path d="m365.45 398.35c-2.6336-3.5945-11.326-0.7292-16.345 1.502-2.5019 1.112-8.2122 3.4775-10.733 6.1892-2.696 2.9002-5.8493 7.5596-7.4791 11.626-1.1401 2.8445-2.2359 10.37-3.2889 24.662 3.8641-20.041 6.4881-28.268 12.823-32.818 12.741-9.1512 27.556-7.705 25.023-11.161z"/>
  </g>
  <path d="m366.56 433.6c1.0526-10.638 11.857 13.528 14.972 16.827 4.0564 4.2969 30.279 4.4241 31.401 5.9828 3.0696 4.2648-13.622 4.5016-19.087 4.9179-13.332 1.0155-29.558 1.5012-34.365 1.5009-7.8815-4.5e-4 -14.504 0.25842-15.059-19.215-0.1511-5.2997 3.9328-14.617 3.8648-18.127-0.0652-3.3712 2.032-3.5936 3.7373-1.3389 1.316 1.7399 0.3801 13.335 4.8078 15 7.599 2.8577 9.1237 0.56191 9.7284-5.5484z" fill="#986601" fill-rule="evenodd"/>
  <g fill="#e3e2db">
   <g transform="matrix(.9608 .27726 -.27726 .9608 -148.96 156.8)" fill="#e3e2db" fill-rule="evenodd" stroke="#000" stroke-width="1.1879">
    <path d="m581.24 99.284-3.221 0.11051s-2.6042 5.9778-3.0208 9.5936c-0.42647 3.7014 2.7668 4.0919 4.9519 3.9934 2.4445-0.11029 5.0565-2.2366 4.5822-3.9717-1.1444-4.1862-3.2923-9.7258-3.2923-9.7258zm-2.5618 7.6566c0.37226-0.15133 1.9546-0.22655 2.4286 0.09717 0.53686 0.3666 1.0396 1.4096 0.71841 2.2937s-1.0418 1.3662-2.3244 1.4627-1.8125-0.81209-2.0182-1.6929 0.73246-1.9724 1.1955-2.1606z"/>
    <path d="m577.87 94.979s-1.2046 1.0641-1.8467 2.7716-1.4049 3.8962-0.37274 4.4435 2.0787-2.3224 4.0935-2.3224c1.1957 0 2.8344 1.8033 3.8432 1.3303s0.14686-2.4112-0.77039-3.9949-1.9644-2.2126-1.9644-2.2126l-2.9824-0.01545z"/>
   </g>
  </g>
  <g transform="matrix(.93771 -.34743 .34743 .93771 -190.66 529.31)" fill="#e3e2db" fill-rule="evenodd" stroke="#000" stroke-width="1.1879">
   <path d="m581.24 99.284-3.221 0.11051s-2.6042 5.9778-3.0208 9.5936c-0.42647 3.7014 2.7668 4.0919 4.9519 3.9934 2.4445-0.11029 5.0565-2.2366 4.5822-3.9717-1.1444-4.1862-3.2923-9.7258-3.2923-9.7258zm-2.5618 7.6566c0.37226-0.15133 1.9546-0.22655 2.4286 0.09717 0.53686 0.3666 1.0396 1.4096 0.71841 2.2937s-1.0418 1.3662-2.3244 1.4627-1.8125-0.81209-2.0182-1.6929 0.73246-1.9724 1.1955-2.1606z"/>
   <path d="m577.87 94.979s-1.2046 1.0641-1.8467 2.7716-1.4049 3.8962-0.37274 4.4435 2.0787-2.3224 4.0935-2.3224c1.1957 0 2.8344 1.8033 3.8432 1.3303s0.14686-2.4112-0.77039-3.9949-1.9644-2.2126-1.9644-2.2126l-2.9824-0.01545z"/>
  </g>
 </g>
</svg>
